<?xml version="1.0" standalone="no"?>
<!DOCTYPE svg PUBLIC "-//W3C//DTD SVG 20010904//EN"
 "http://www.w3.org/TR/2001/REC-SVG-20010904/DTD/svg10.dtd">
<svg version="1.0" xmlns="http://www.w3.org/2000/svg"
 width="16.000000pt" height="16.000000pt" viewBox="0 0 16.000000 16.000000"
 preserveAspectRatio="xMidYMid meet">
<metadata>
Created by potrace 1.11, written by Peter Selinger 2001-2013
</metadata>
<g transform="translate(0.000000,16.000000) scale(0.003125,-0.003125)"
fill="#000000" stroke="none">
<path d="M2415 4724 c-540 -44 -1010 -259 -1385 -634 -416 -416 -634 -941
-634 -1530 0 -589 218 -1114 634 -1530 416 -416 941 -634 1530 -634 589 0
1114 218 1530 634 416 416 634 941 634 1530 0 589 -218 1114 -634 1530 -338
338 -751 546 -1221 614 -109 16 -363 27 -454 20z m-90 -649 c97 -25 182 -72
256 -142 150 -142 209 -318 188 -557 -15 -162 -81 -340 -177 -481 l-41 -60
302 -302 c166 -167 307 -303 312 -303 14 0 155 142 155 156 0 6 -24 33 -52 60
-76 71 -138 145 -138 166 0 21 132 164 170 183 14 7 33 10 43 6 25 -9 384
-357 484 -469 46 -52 83 -102 83 -113 0 -22 -131 -164 -170 -184 -36 -19 -63
-1 -166 104 l-79 81 -82 -82 -83 -83 199 -200 c109 -110 204 -210 210 -222 16
-32 13 -110 -5 -149 -22 -47 -98 -112 -146 -124 -91 -25 -59 -52 -713 600
l-600 598 -50 -34 c-141 -97 -318 -166 -477 -185 -225 -27 -420 32 -558 171
-108 108 -166 240 -177 406 -19 284 111 587 357 832 185 184 413 305 646 342
78 12 234 5 309 -15z"/>
<path d="M2040 3756 c-72 -16 -107 -35 -159 -87 -54 -55 -77 -100 -91 -181
-10 -54 -9 -77 3 -124 9 -33 14 -61 12 -62 -2 -2 -20 1 -40 8 -49 16 -151 14
-204 -5 -81 -28 -150 -92 -189 -175 -38 -78 -38 -191 0 -272 29 -61 92 -129
148 -158 130 -66 303 -33 401 78 58 66 82 140 76 232 -3 41 -8 86 -12 99 -7
21 -6 23 11 17 37 -15 119 -22 172 -13 101 15 186 76 238 169 27 49 29 61 29
153 0 89 -3 105 -27 150 -26 50 -81 108 -128 137 -62 38 -161 52 -240 34z"/>
<path d="M4220 4115 c13 -14 26 -25 28 -25 3 0 -5 11 -18 25 -13 14 -26 25
-28 25 -3 0 5 -11 18 -25z"/>
<path d="M4300 4025 c13 -14 26 -25 28 -25 3 0 -5 11 -18 25 -13 14 -26 25
-28 25 -3 0 5 -11 18 -25z"/>
<path d="M4345 3970 c10 -11 20 -20 23 -20 3 0 -3 9 -13 20 -10 11 -20 20 -23
20 -3 0 3 -9 13 -20z"/>
<path d="M4454 3817 c252 -381 376 -797 376 -1254 0 -365 -71 -672 -229 -998
-224 -460 -585 -820 -1046 -1046 -231 -113 -463 -182 -717 -215 -176 -22 -512
-15 -668 15 -163 30 -180 32 -125 16 181 -53 540 -79 766 -56 694 72 1308 447
1689 1031 34 52 93 158 131 235 306 622 306 1366 0 1990 -64 130 -209 365
-243 393 -9 7 21 -43 66 -111z"/>
<path d="M1938 363 c7 -3 16 -2 19 1 4 3 -2 6 -13 5 -11 0 -14 -3 -6 -6z"/>
</g>
</svg>
